# Exported from Wings 3D 2.1.5
mtllib knight.mtl
o knight
#72 vertices, 136 faces
v -0.11472957 0.38342608 -3.6900000e-2
v -0.11472957 0.38342608 3.6900000e-2
v -0.24206854 0.85866158 -3.6900000e-2
v -0.24206854 0.85866158 3.6900000e-2
v -4.3444242e-2 0.40252692 -3.6900000e-2
v -4.3444242e-2 0.40252692 3.6900000e-2
v -0.17078321 0.87776243 -3.6900000e-2
v -0.17078321 0.87776243 3.6900000e-2
v 0.12005217 0.80306141 -3.6900000e-2
v 0.12005217 0.80306141 3.6900000e-2
v -3.5502433e-2 0.61767865 -3.6900000e-2
v -3.5502433e-2 0.61767865 3.6900000e-2
v 6.3518089e-2 0.85049913 -3.6900000e-2
v 6.3518089e-2 0.85049913 3.6900000e-2
v -9.2036513e-2 0.66511638 -3.6900000e-2
v -9.2036513e-2 0.66511638 3.6900000e-2
v 0.10704563 0.41663256 -3.6900000e-2
v 0.10704563 0.41663256 3.6900000e-2
v -5.9231246e-2 0.51263256 -3.6900000e-2
v -5.9231246e-2 0.51263256 3.6900000e-2
v 0.14394563 0.48054523 -3.6900000e-2
v 0.14394563 0.48054523 3.6900000e-2
v -2.2331246e-2 0.57654523 -3.6900000e-2
v -2.2331246e-2 0.57654523 3.6900000e-2
v 0.13224361 0.33521813 -9.9359821e-17
v 9.5631958e-2 0.33521813 8.8388348e-2
v 7.2436104e-3 0.33521813 0.12500000
v -8.1144737e-2 0.33521813 8.8388348e-2
v -0.11775639 0.33521813 -9.9359821e-17
v -8.1144737e-2 0.33521813 -8.8388348e-2
v 7.2436104e-3 0.33521813 -0.12500000
v 9.5631958e-2 0.33521813 -8.8388348e-2
v 0.25724361 -0.18228187 1.2268478e-16
v 0.18402031 -0.18228187 0.17677670
v 7.2436104e-3 -0.18228187 0.25000000
v -0.16953308 -0.18228187 0.17677670
v -0.24275639 -0.18228187 1.2268478e-16
v -0.16953308 -0.18228187 -0.17677670
v 7.2436104e-3 -0.18228187 -0.25000000
v 0.18402031 -0.18228187 -0.17677670
v 0.25724361 -0.28228187 1.2268478e-16
v 0.18402031 -0.28228187 0.17677670
v 7.2436104e-3 -0.28228187 0.25000000
v -0.16953308 -0.28228187 0.17677670
v -0.24275639 -0.28228187 1.2268478e-16
v -0.16953308 -0.28228187 -0.17677670
v 7.2436104e-3 -0.28228187 -0.25000000
v 0.18402031 -0.28228187 -0.17677670
v 0.13224361 1.0218126e-2 -9.9359821e-17
v 9.5631958e-2 1.0218126e-2 8.8388348e-2
v 7.2436104e-3 1.0218126e-2 0.12500000
v -8.1144737e-2 1.0218126e-2 8.8388348e-2
v -0.11775639 1.0218126e-2 -9.9359821e-17
v -8.1144737e-2 1.0218126e-2 -8.8388348e-2
v 7.2436104e-3 1.0218126e-2 -0.12500000
v 9.5631958e-2 1.0218126e-2 -8.8388348e-2
v 0.19474361 -2.0656874e-2 -9.9359821e-17
v 0.13982613 -2.0656874e-2 0.13258252
v 7.2436104e-3 -2.0656874e-2 0.18750000
v -0.12533891 -2.0656874e-2 0.13258252
v -0.18025639 -2.0656874e-2 -9.9359821e-17
v -0.12533891 -2.0656874e-2 -0.13258252
v 7.2436104e-3 -2.0656874e-2 -0.18750000
v 0.13982613 -2.0656874e-2 -0.13258252
v 0.19474361 -0.11815687 -9.9359821e-17
v 0.13982613 -0.11815687 0.13258252
v 7.2436104e-3 -0.11815687 0.18750000
v -0.12533891 -0.11815687 0.13258252
v -0.18025639 -0.11815687 -9.9359821e-17
v -0.12533891 -0.11815687 -0.13258252
v 7.2436104e-3 -0.11815687 -0.18750000
v 0.13982613 -0.11815687 -0.13258252
vn -0.21320072 -0.36927447 -0.90453403
vn -0.34299717 -0.59408853 0.72760688
vn -0.70710678 0.40824829 -0.57735027
vn -0.50000000 0.28867513 0.81649658
vn 0.79161312 -0.52237431 -0.31697595
vn 0.69391142 -0.45790234 0.55570891
vn 0.38040774 0.73577371 -0.56029189
vn 0.43505589 0.84147258 0.32039081
vn 0.81338956 7.1162366e-2 -0.57735027
vn 0.81338956 7.1162366e-2 0.57735027
vn 0.64640914 -0.12708172 -0.75233335
vn 0.64640914 -0.12708172 0.75233335
vn -7.1162366e-2 0.81338956 -0.57735027
vn -7.1162366e-2 0.81338956 0.57735027
vn 4.7157916e-2 0.27189055 -0.96117202
vn 3.3670830e-2 0.19413030 0.98039773
vn 0.21132487 -0.78867513 -0.57735027
vn 0.21132487 -0.78867513 0.57735027
vn 0.11964492 -0.17684945 -0.97693877
vn 0.15677126 -0.23172661 0.96006539
vn 0.78867513 0.21132487 -0.57735027
vn 0.78867513 0.21132487 0.57735027
vn 0.53101801 0.42813639 -0.73124490
vn 0.53101801 0.42813639 0.73124490
vn 0.77638213 0.63026247 -9.3297588e-17
vn 0.37082648 0.85145490 0.37082648
vn -5.7998911e-17 0.26120387 0.96528366
vn -0.47984149 0.73450956 0.47984149
vn -0.77638213 0.63026247 9.3297588e-17
vn -0.37082648 0.85145490 -0.37082648
vn -5.7998911e-17 0.26120387 -0.96528366
vn 0.47984149 0.73450956 -0.47984149
vn 0.92345466 0.38370756 -1.3528254e-16
vn 0.65298105 0.38370756 0.65298105
vn 0.0000000e+0 0.38370756 0.92345466
vn -0.65298105 0.38370756 0.65298105
vn -0.92345466 0.38370756 -1.3528254e-16
vn -0.65298105 0.38370756 -0.65298105
vn -7.9577966e-18 0.38370756 -0.92345466
vn 0.65298105 0.38370756 -0.65298105
vn 0.87946522 -0.47596315 -2.6421262e-17
vn 0.54898507 -0.63026247 0.54898507
vn 0.0000000e+0 -0.85145490 0.52442784
vn -0.62187582 -0.47596315 0.62187582
vn -0.87946522 -0.47596315 -2.6421262e-17
vn -0.54898507 -0.63026247 -0.54898507
vn 0.0000000e+0 -0.85145490 -0.52442784
vn 0.62187582 -0.47596315 -0.62187582
vn 0.83896005 0.54419301 -1.7128045e-17
vn 0.59323434 0.54419301 0.59323434
vn -2.5692068e-17 0.54419301 0.83896005
vn -0.59323434 0.54419301 0.59323434
vn -0.83896005 0.54419301 -1.7128045e-17
vn -0.59323434 0.54419301 -0.59323434
vn -2.5692068e-17 0.54419301 -0.83896005
vn 0.59323434 0.54419301 -0.59323434
vn 0.83896005 0.54419301 -5.9948158e-17
vn 0.59323434 0.54419301 0.59323434
vn -8.5640226e-18 0.54419301 0.83896005
vn -0.59323434 0.54419301 0.59323434
vn -0.83896005 0.54419301 -5.9948158e-17
vn -0.59323434 0.54419301 -0.59323434
vn -8.5640226e-18 0.54419301 -0.83896005
vn 0.59323434 0.54419301 -0.59323434
vn 0.92345466 0.38370756 -9.5493559e-17
vn 0.65298105 0.38370756 0.65298105
vn 0.0000000e+0 0.38370756 0.92345466
vn -0.65298105 0.38370756 0.65298105
vn -0.92345466 0.38370756 -1.1140915e-16
vn -0.65298105 0.38370756 -0.65298105
vn 0.0000000e+0 0.38370756 -0.92345466
vn 0.65298105 0.38370756 -0.65298105
g knight_default
usemtl default
s 1
f 1//1 5//5 2//2
f 1//1 19//19 5//5
f 2//2 3//3 1//1
f 2//2 5//5 6//6
f 2//2 16//16 4//4
f 3//3 8//8 7//7
f 3//3 15//15 1//1
f 4//4 3//3 2//2
f 4//4 8//8 3//3
f 4//4 16//16 8//8
f 5//5 20//20 6//6
f 6//6 20//20 2//2
f 7//7 15//15 3//3
f 8//8 15//15 7//7
f 9//9 12//12 11//11
f 9//9 14//14 10//10
f 9//9 15//15 13//13
f 10//10 12//12 9//9
f 10//10 14//14 12//12
f 11//11 15//15 9//9
f 11//11 23//23 15//15
f 12//12 14//14 16//16
f 12//12 23//23 11//11
f 13//13 14//14 9//9
f 13//13 15//15 14//14
f 14//14 15//15 16//16
f 15//15 8//8 16//16
f 16//16 2//2 20//20
f 16//16 20//20 12//12
f 17//17 20//20 19//19
f 17//17 22//22 18//18
f 17//17 23//23 21//21
f 18//18 20//20 17//17
f 18//18 22//22 20//20
f 19//19 1//1 15//15
f 19//19 15//15 23//23
f 19//19 23//23 17//17
f 20//20 5//5 19//19
f 20//20 22//22 24//24
f 21//21 22//22 17//17
f 21//21 23//23 22//22
f 22//22 23//23 24//24
f 23//23 12//12 24//24
f 24//24 12//12 20//20
f 25//25 29//29 26//26
f 25//25 50//50 49//49
f 25//25 56//56 32//32
f 26//26 28//28 27//27
f 26//26 50//50 25//25
f 27//27 50//50 26//26
f 27//27 52//52 51//51
f 28//28 26//26 29//29
f 28//28 52//52 27//27
f 29//29 25//25 30//30
f 29//29 52//52 28//28
f 29//29 54//54 53//53
f 30//30 32//32 31//31
f 30//30 54//54 29//29
f 31//31 54//54 30//30
f 31//31 56//56 55//55
f 32//32 30//30 25//25
f 32//32 56//56 31//31
f 33//33 42//42 41//41
f 33//33 48//48 40//40
f 33//33 66//66 34//34
f 34//34 42//42 33//33
f 34//34 66//66 35//35
f 35//35 42//42 34//34
f 35//35 44//44 43//43
f 35//35 68//68 36//36
f 36//36 44//44 35//35
f 36//36 68//68 37//37
f 37//37 44//44 36//36
f 37//37 46//46 45//45
f 37//37 70//70 38//38
f 38//38 46//46 37//37
f 38//38 70//70 39//39
f 39//39 46//46 38//38
f 39//39 48//48 47//47
f 39//39 72//72 40//40
f 40//40 48//48 39//39
f 40//40 72//72 33//33
f 41//41 48//48 33//33
f 42//42 48//48 41//41
f 43//43 42//42 35//35
f 43//43 47//47 42//42
f 44//44 46//46 43//43
f 45//45 44//44 37//37
f 45//45 46//46 44//44
f 47//47 43//43 46//46
f 47//47 46//46 39//39
f 48//48 42//42 47//47
f 49//49 56//56 25//25
f 49//49 57//57 56//56
f 50//50 57//57 49//49
f 51//51 50//50 27//27
f 51//51 59//59 50//50
f 52//52 59//59 51//51
f 53//53 52//52 29//29
f 53//53 61//61 52//52
f 54//54 61//61 53//53
f 55//55 54//54 31//31
f 55//55 63//63 54//54
f 56//56 63//63 55//55
f 57//57 50//50 58//58
f 57//57 66//66 65//65
f 57//57 72//72 64//64
f 58//58 50//50 59//59
f 58//58 66//66 57//57
f 59//59 52//52 60//60
f 59//59 66//66 58//58
f 59//59 68//68 67//67
f 60//60 52//52 61//61
f 60//60 68//68 59//59
f 61//61 54//54 62//62
f 61//61 68//68 60//60
f 61//61 70//70 69//69
f 62//62 54//54 63//63
f 62//62 70//70 61//61
f 63//63 56//56 64//64
f 63//63 70//70 62//62
f 63//63 72//72 71//71
f 64//64 56//56 57//57
f 64//64 72//72 63//63
f 65//65 33//33 72//72
f 65//65 72//72 57//57
f 66//66 33//33 65//65
f 67//67 35//35 66//66
f 67//67 66//66 59//59
f 68//68 35//35 67//67
f 69//69 37//37 68//68
f 69//69 68//68 61//61
f 70//70 37//37 69//69
f 71//71 39//39 70//70
f 71//71 70//70 63//63
f 72//72 39//39 71//71
