# Exported from Wings 3D 2.1.5
mtllib pawn.mtl
o pawn
#169 vertices, 334 faces
v 0.12500000 5.7358723e-2 -2.0637823e-17
v 8.8388348e-2 5.7358723e-2 8.8388348e-2
v -5.5200216e-17 5.7358723e-2 0.12500000
v -8.8388348e-2 5.7358723e-2 8.8388348e-2
v -0.12500000 5.7358723e-2 -2.0637823e-17
v -8.8388348e-2 5.7358723e-2 -8.8388348e-2
v -5.5200216e-17 5.7358723e-2 -0.12500000
v 8.8388348e-2 5.7358723e-2 -8.8388348e-2
v 0.25000000 -0.22389128 -2.0637823e-17
v 0.17677670 -0.22389128 0.17677670
v -5.5200216e-17 -0.22389128 0.25000000
v -0.17677670 -0.22389128 0.17677670
v -0.25000000 -0.22389128 -2.0637823e-17
v -0.17677670 -0.22389128 -0.17677670
v -5.5200216e-17 -0.22389128 -0.25000000
v 0.17677670 -0.22389128 -0.17677670
v 0.25000000 -0.29889128 -2.0637823e-17
v 0.17677670 -0.29889128 0.17677670
v -5.5200216e-17 -0.29889128 0.25000000
v -0.17677670 -0.29889128 0.17677670
v -0.25000000 -0.29889128 -2.0637823e-17
v -0.17677670 -0.29889128 -0.17677670
v -5.5200216e-17 -0.29889128 -0.25000000
v 0.17677670 -0.29889128 -0.17677670
v 0.12500000 -0.13014128 -2.0637823e-17
v 8.8388348e-2 -0.13014128 8.8388348e-2
v -5.5200216e-17 -0.13014128 0.12500000
v -8.8388348e-2 -0.13014128 8.8388348e-2
v -0.12500000 -0.13014128 -2.0637823e-17
v -8.8388348e-2 -0.13014128 -8.8388348e-2
v -5.5200216e-17 -0.13014128 -0.12500000
v 8.8388348e-2 -0.13014128 -8.8388348e-2
v 0.18750000 -0.14795378 -2.0637823e-17
v 0.13258252 -0.14795378 0.13258252
v -5.5200216e-17 -0.14795378 0.18750000
v -0.13258252 -0.14795378 0.13258252
v -0.18750000 -0.14795378 -2.0637823e-17
v -0.13258252 -0.14795378 -0.13258252
v -5.5200216e-17 -0.14795378 -0.18750000
v 0.13258252 -0.14795378 -0.13258252
v 0.18750000 -0.20420378 -2.0637823e-17
v 0.13258252 -0.20420378 0.13258252
v -5.5200216e-17 -0.20420378 0.18750000
v -0.13258252 -0.20420378 0.13258252
v -0.18750000 -0.20420378 -2.0637823e-17
v -0.13258252 -0.20420378 -0.13258252
v -5.5200216e-17 -0.20420378 -0.18750000
v 0.13258252 -0.20420378 -0.13258252
v 0.15625000 0.13704622 -2.0637823e-17
v 0.11048543 0.13704622 0.11048543
v 1.6684439e-16 0.13704622 0.15625000
v -0.11048543 0.13704622 0.11048543
v -0.15625000 0.13704622 -2.0637823e-17
v -0.11048543 0.13704622 -0.11048543
v 1.6684439e-16 0.13704622 -0.15625000
v 0.11048543 0.13704622 -0.11048543
v 0.15625000 9.0171223e-2 -2.0637823e-17
v 0.11048543 9.0171223e-2 0.11048543
v 1.6684439e-16 9.0171223e-2 0.15625000
v -0.11048543 9.0171223e-2 0.11048543
v -0.15625000 9.0171223e-2 -2.0637823e-17
v -0.11048543 9.0171223e-2 -0.11048543
v 1.6684439e-16 9.0171223e-2 -0.15625000
v 0.11048543 9.0171223e-2 -0.11048543
v 0.19531250 0.21790560 -2.0637823e-17
v 0.13810679 0.21790560 0.13810679
v 1.6684439e-16 0.21790560 0.19531250
v -0.13810679 0.21790560 0.13810679
v -0.19531250 0.21790560 -2.0637823e-17
v -0.13810679 0.21790560 -0.13810679
v 1.6684439e-16 0.21790560 -0.19531250
v 0.13810679 0.21790560 -0.13810679
v 0.19531250 0.15931185 -2.0637823e-17
v 0.13810679 0.15931185 0.13810679
v 1.6684439e-16 0.15931185 0.19531250
v -0.13810679 0.15931185 0.13810679
v -0.19531250 0.15931185 -2.0637823e-17
v -0.13810679 0.15931185 -0.13810679
v 1.6684439e-16 0.15931185 -0.19531250
v 0.13810679 0.15931185 -0.13810679
v 0.15625000 0.28704622 -2.0637823e-17
v 0.11048543 0.28704622 0.11048543
v 1.6684439e-16 0.28704622 0.15625000
v -0.11048543 0.28704622 0.11048543
v -0.15625000 0.28704622 -2.0637823e-17
v -0.11048543 0.28704622 -0.11048543
v 1.6684439e-16 0.28704622 -0.15625000
v 0.11048543 0.28704622 -0.11048543
v 0.15625000 0.24017122 -2.0637823e-17
v 0.11048543 0.24017122 0.11048543
v 1.6684439e-16 0.24017122 0.15625000
v -0.11048543 0.24017122 0.11048543
v -0.15625000 0.24017122 -2.0637823e-17
v -0.11048543 0.24017122 -0.11048543
v 1.6684439e-16 0.24017122 -0.15625000
v 0.11048543 0.24017122 -0.11048543
v 0.11718750 0.35618685 -2.0637823e-17
v 8.2864076e-2 0.35618685 8.2864076e-2
v 1.6684439e-16 0.35618685 0.11718750
v -8.2864076e-2 0.35618685 8.2864076e-2
v -0.11718750 0.35618685 -2.0637823e-17
v -8.2864076e-2 0.35618685 -8.2864076e-2
v 1.6684439e-16 0.35618685 -0.11718750
v 8.2864076e-2 0.35618685 -8.2864076e-2
v 0.11718750 0.32103060 -2.0637823e-17
v 8.2864076e-2 0.32103060 8.2864076e-2
v 1.6684439e-16 0.32103060 0.11718750
v -8.2864076e-2 0.32103060 8.2864076e-2
v -0.11718750 0.32103060 -2.0637823e-17
v -8.2864076e-2 0.32103060 -8.2864076e-2
v 1.6684439e-16 0.32103060 -0.11718750
v 8.2864076e-2 0.32103060 -8.2864076e-2
v 8.7890625e-2 0.40429232 -2.0637823e-17
v 6.2148057e-2 0.40429232 6.2148057e-2
v 1.6684439e-16 0.40429232 8.7890625e-2
v -6.2148057e-2 0.40429232 6.2148057e-2
v -8.7890625e-2 0.40429232 -2.0637823e-17
v -6.2148057e-2 0.40429232 -6.2148057e-2
v 1.6684439e-16 0.40429232 -8.7890625e-2
v 6.2148057e-2 0.40429232 -6.2148057e-2
v 8.7890625e-2 0.37792513 -2.0637823e-17
v 6.2148057e-2 0.37792513 6.2148057e-2
v 1.6684439e-16 0.37792513 8.7890625e-2
v -6.2148057e-2 0.37792513 6.2148057e-2
v -8.7890625e-2 0.37792513 -2.0637823e-17
v -6.2148057e-2 0.37792513 -6.2148057e-2
v 1.6684439e-16 0.37792513 -8.7890625e-2
v 6.2148057e-2 0.37792513 -6.2148057e-2
v 2.8701257e-2 0.52728454 4.5538848e-17
v 2.0294854e-2 0.52728454 2.0294854e-2
v 1.5064526e-16 0.52728454 2.8701257e-2
v -2.0294854e-2 0.52728454 2.0294854e-2
v -2.8701257e-2 0.52728454 1.3487527e-17
v -2.0294854e-2 0.52728454 -2.0294854e-2
v 1.7918169e-16 0.52728454 -2.8701257e-2
v 2.0294854e-2 0.52728454 -2.0294854e-2
v 5.3033009e-2 0.51102658 7.0687958e-17
v 3.7500000e-2 0.51102658 3.7500000e-2
v 1.3705936e-16 0.51102658 5.3033009e-2
v -3.7500000e-2 0.51102658 3.7500000e-2
v -5.3033009e-2 0.51102658 1.1464838e-17
v -3.7500000e-2 0.51102658 -3.7500000e-2
v 1.8978781e-16 0.51102658 -5.3033009e-2
v 3.7500000e-2 0.51102658 -3.7500000e-2
v 6.9290965e-2 0.48669483 9.5837068e-17
v 4.8996111e-2 0.48669483 4.8996111e-2
v 1.2798155e-16 0.48669483 6.9290965e-2
v -4.8996111e-2 0.48669483 4.8996111e-2
v -6.9290965e-2 0.48669483 1.8458332e-17
v -4.8996111e-2 0.48669483 -4.8996111e-2
v 1.9687459e-16 0.48669483 -6.9290965e-2
v 4.8996111e-2 0.48669483 -4.8996111e-2
v 7.5000000e-2 0.45799357 1.1715745e-16
v 5.3033009e-2 0.45799357 5.3033009e-2
v 1.2479385e-16 0.45799357 7.5000000e-2
v -5.3033009e-2 0.45799357 5.3033009e-2
v -7.5000000e-2 0.45799357 3.3403314e-17
v -5.3033009e-2 0.45799357 -5.3033009e-2
v 1.9936314e-16 0.45799357 -7.5000000e-2
v 5.3033009e-2 0.45799357 -5.3033009e-2
v 6.9290965e-2 0.42929232 1.3140328e-16
v 4.8996111e-2 0.42929232 4.8996111e-2
v 1.2798155e-16 0.42929232 6.9290965e-2
v -4.8996111e-2 0.42929232 4.8996111e-2
v -6.9290965e-2 0.42929232 5.4024544e-17
v -4.8996111e-2 0.42929232 -4.8996111e-2
v 1.9687459e-16 0.42929232 -6.9290965e-2
v 4.8996111e-2 0.42929232 -4.8996111e-2
v 1.6667092e-16 0.53299357 2.4218463e-17
vn 0.92577148 -0.37808354 0.0000000e+0
vn 0.65461929 -0.37808354 0.65461929
vn -1.9063132e-16 -0.37808354 0.92577148
vn -0.65461929 -0.37808354 0.65461929
vn -0.92577148 -0.37808354 -1.5885943e-17
vn -0.65461929 -0.37808354 -0.65461929
vn -1.8268835e-16 -0.37808354 -0.92577148
vn 0.65461929 -0.37808354 -0.65461929
vn 0.79059450 0.61234005 -6.2848013e-17
vn 0.55903473 0.61234005 0.55903473
vn 5.3869726e-17 0.61234005 0.79059450
vn -0.55903473 0.61234005 0.55903473
vn -0.79059450 0.61234005 -6.2848013e-17
vn -0.55903473 0.61234005 -0.55903473
vn 5.3869726e-17 0.61234005 -0.79059450
vn 0.55903473 0.61234005 -0.55903473
vn 0.87946522 -0.47596315 -5.2842525e-17
vn 0.54898507 -0.63026247 0.54898507
vn 9.4530483e-17 -0.85145490 0.52442784
vn -0.62187582 -0.47596315 0.62187582
vn -0.87946522 -0.47596315 -5.2842525e-17
vn -0.54898507 -0.63026247 -0.54898507
vn 9.4530483e-17 -0.85145490 -0.52442784
vn 0.62187582 -0.47596315 -0.62187582
vn 0.78131662 0.62413488 -1.8128742e-17
vn 0.55247428 0.62413488 0.55247428
vn -4.5321856e-18 0.62413488 0.78131662
vn -0.55247428 0.62413488 0.55247428
vn -0.78131662 0.62413488 -1.8128742e-17
vn -0.55247428 0.62413488 -0.55247428
vn 0.0000000e+0 0.62413488 -0.78131662
vn 0.55247428 0.62413488 -0.55247428
vn 0.78131662 0.62413488 -6.3450598e-17
vn 0.55247428 0.62413488 0.55247428
vn 5.4386227e-17 0.62413488 0.78131662
vn -0.55247428 0.62413488 0.55247428
vn -0.78131662 0.62413488 -6.3450598e-17
vn -0.55247428 0.62413488 -0.55247428
vn 5.4386227e-17 0.62413488 -0.78131662
vn 0.55247428 0.62413488 -0.55247428
vn 0.79059450 0.61234005 -5.3869726e-17
vn 0.55903473 0.61234005 0.55903473
vn 1.0773945e-16 0.61234005 0.79059450
vn -0.55903473 0.61234005 0.55903473
vn -0.79059450 0.61234005 -6.7337157e-17
vn -0.55903473 0.61234005 -0.55903473
vn 1.0773945e-16 0.61234005 -0.79059450
vn 0.55903473 0.61234005 -0.55903473
vn 0.85596994 -0.51702558 -9.2739729e-17
vn 0.60526215 -0.51702558 0.60526215
vn 2.1920300e-16 -0.51702558 0.85596994
vn -0.60526215 -0.51702558 0.60526215
vn -0.85596994 -0.51702558 -5.9016191e-17
vn -0.60526215 -0.51702558 -0.60526215
vn 2.2763388e-16 -0.51702558 -0.85596994
vn 0.60526215 -0.51702558 -0.60526215
vn 0.92577148 -0.37808354 -1.5885943e-17
vn 0.65461929 -0.37808354 0.65461929
vn -2.0651726e-16 -0.37808354 0.92577148
vn -0.65461929 -0.37808354 0.65461929
vn -0.92577148 -0.37808354 -3.1771887e-17
vn -0.65461929 -0.37808354 -0.65461929
vn -2.0651726e-16 -0.37808354 -0.92577148
vn 0.65461929 -0.37808354 -0.65461929
vn 0.85596994 0.51702558 -9.2739729e-17
vn 0.60526215 0.51702558 0.60526215
vn 5.1428395e-16 0.51702558 0.85596994
vn -0.60526215 0.51702558 0.60526215
vn -0.85596994 0.51702558 -5.9016191e-17
vn -0.60526215 0.51702558 -0.60526215
vn 5.1428395e-16 0.51702558 -0.85596994
vn 0.60526215 0.51702558 -0.60526215
vn 0.85596994 -0.51702558 -5.0585307e-17
vn 0.60526215 -0.51702558 0.60526215
vn 6.4074722e-16 -0.51702558 0.85596994
vn -0.60526215 -0.51702558 0.60526215
vn -0.85596994 -0.51702558 0.0000000e+0
vn -0.60526215 -0.51702558 -0.60526215
vn 6.4074722e-16 -0.51702558 -0.85596994
vn 0.60526215 -0.51702558 -0.60526215
vn 0.90589356 0.42350544 -8.0730562e-17
vn 0.64056348 0.42350544 0.64056348
vn 0.0000000e+0 0.42350544 0.90589356
vn -0.64056348 0.42350544 0.64056348
vn -0.90589356 0.42350544 -1.1302279e-16
vn -0.64056348 0.42350544 -0.64056348
vn 0.0000000e+0 0.42350544 -0.90589356
vn 0.64056348 0.42350544 -0.64056348
vn 0.85596994 0.51702558 -3.3723538e-17
vn 0.60526215 0.51702558 0.60526215
vn 8.4308844e-18 0.51702558 0.85596994
vn -0.60526215 0.51702558 0.60526215
vn -0.85596994 0.51702558 0.0000000e+0
vn -0.60526215 0.51702558 -0.60526215
vn 8.4308844e-18 0.51702558 -0.85596994
vn 0.60526215 0.51702558 -0.60526215
vn 0.88759667 0.46062148 -8.7727261e-16
vn 0.62762563 0.46062148 0.62762563
vn -8.1988094e-18 0.46062148 0.88759667
vn -0.62762563 0.46062148 0.62762563
vn -0.88759667 0.46062148 -8.7727261e-16
vn -0.62762563 0.46062148 -0.62762563
vn -8.1988094e-18 0.46062148 -0.88759667
vn 0.62762563 0.46062148 -0.62762563
vn 0.90589356 0.42350544 -9.6876674e-16
vn 0.64056348 0.42350544 0.64056348
vn 0.0000000e+0 0.42350544 0.90589356
vn -0.64056348 0.42350544 0.64056348
vn -0.90589356 0.42350544 -9.3647451e-16
vn -0.64056348 0.42350544 -0.64056348
vn 1.6146112e-17 0.42350544 -0.90589356
vn 0.64056348 0.42350544 -0.64056348
vn 0.94788758 0.31860499 -8.5082457e-16
vn 0.67025773 0.31860499 0.67025773
vn -1.4830887e-16 0.31860499 0.94788758
vn -0.67025773 0.31860499 0.67025773
vn -0.94788758 0.31860499 -9.6010479e-16
vn -0.67025773 0.31860499 -0.67025773
vn -6.2445840e-17 0.31860499 -0.94788758
vn 0.67025773 0.31860499 -0.67025773
vn 0.88759667 0.46062148 -1.1314357e-15
vn 0.62762563 0.46062148 0.62762563
vn -1.3118095e-16 0.46062148 0.88759667
vn -0.62762563 0.46062148 0.62762563
vn -0.88759667 0.46062148 -1.1478333e-15
vn -0.62762563 0.46062148 -0.62762563
vn -1.4757857e-16 0.46062148 -0.88759667
vn 0.62762563 0.46062148 -0.62762563
vn 0.38061083 0.92473531 -4.2349572e-15
vn 0.31196198 0.89741821 0.31196198
vn -4.1631782e-16 0.92473531 0.38061083
vn -0.31196198 0.89741821 0.31196198
vn -0.38061083 0.92473531 2.1533681e-17
vn -0.31196198 0.89741821 -0.31196198
vn -4.3067361e-17 0.92473531 -0.38061083
vn 0.31196198 0.89741821 -0.31196198
vn 0.70497678 0.70923039 -1.2307053e-15
vn 0.49849386 0.70923039 0.49849386
vn -2.4319326e-16 0.70923039 0.70497678
vn -0.49849386 0.70923039 0.49849386
vn -0.70497678 0.70923039 -1.2528138e-16
vn -0.49849386 0.70923039 -0.49849386
vn 2.2108478e-16 0.70923039 -0.70497678
vn 0.49849386 0.70923039 -0.49849386
vn 0.92310379 0.38455089 -6.6516796e-16
vn 0.65273295 0.38455089 0.65273295
vn -6.5005051e-16 0.38455089 0.92310379
vn -0.65273295 0.38455089 0.65273295
vn -0.92310379 0.38455089 3.1746653e-16
vn -0.65273295 0.38455089 -0.65273295
vn -4.6864106e-16 0.38455089 -0.92310379
vn 0.65273295 0.38455089 -0.65273295
vn 1.00000000 -1.9090937e-17 4.2763700e-16
vn 0.70710678 6.1854637e-16 0.70710678
vn -5.8036449e-16 8.0181937e-16 1.00000000
vn -0.70710678 4.5054612e-16 0.70710678
vn -1.00000000 3.8181875e-17 -7.2545562e-16
vn -0.70710678 -4.4290975e-16 -0.70710678
vn 1.9854575e-16 -8.9345587e-16 -1.00000000
vn 0.70710678 -4.4290975e-16 -0.70710678
vn 0.97435143 0.22503173 3.2387050e-16
vn 0.68897051 0.22503173 0.68897051
vn 1.1335468e-16 0.22503173 0.97435143
vn -0.68897051 0.22503173 0.68897051
vn -0.97435143 0.22503173 0.0000000e+0
vn -0.68897051 0.22503173 -0.68897051
vn 6.9632158e-16 0.22503173 -0.97435143
vn 0.68897051 0.22503173 -0.68897051
vn -2.1293691e-17 1.00000000 -1.2421320e-17
g pawn_default
usemtl default
s 1
f 1//1 26//26 25//25
f 1//1 32//32 8//8
f 1//1 58//58 2//2
f 2//2 26//26 1//1
f 2//2 58//58 3//3
f 3//3 26//26 2//2
f 3//3 28//28 27//27
f 3//3 60//60 4//4
f 4//4 28//28 3//3
f 4//4 60//60 5//5
f 5//5 28//28 4//4
f 5//5 30//30 29//29
f 5//5 62//62 6//6
f 6//6 30//30 5//5
f 6//6 62//62 7//7
f 7//7 30//30 6//6
f 7//7 32//32 31//31
f 7//7 64//64 8//8
f 8//8 32//32 7//7
f 8//8 64//64 1//1
f 9//9 18//18 17//17
f 9//9 24//24 16//16
f 9//9 42//42 10//10
f 10//10 18//18 9//9
f 10//10 42//42 11//11
f 11//11 18//18 10//10
f 11//11 20//20 19//19
f 11//11 44//44 12//12
f 12//12 20//20 11//11
f 12//12 44//44 13//13
f 13//13 20//20 12//12
f 13//13 22//22 21//21
f 13//13 46//46 14//14
f 14//14 22//22 13//13
f 14//14 46//46 15//15
f 15//15 22//22 14//14
f 15//15 24//24 23//23
f 15//15 48//48 16//16
f 16//16 24//24 15//15
f 16//16 48//48 9//9
f 17//17 24//24 9//9
f 18//18 24//24 17//17
f 19//19 18//18 11//11
f 19//19 23//23 18//18
f 20//20 22//22 19//19
f 21//21 20//20 13//13
f 21//21 22//22 20//20
f 23//23 19//19 22//22
f 23//23 22//22 15//15
f 24//24 18//18 23//23
f 25//25 32//32 1//1
f 25//25 33//33 32//32
f 26//26 33//33 25//25
f 27//27 26//26 3//3
f 27//27 35//35 26//26
f 28//28 35//35 27//27
f 29//29 28//28 5//5
f 29//29 37//37 28//28
f 30//30 37//37 29//29
f 31//31 30//30 7//7
f 31//31 39//39 30//30
f 32//32 39//39 31//31
f 33//33 26//26 34//34
f 33//33 42//42 41//41
f 33//33 48//48 40//40
f 34//34 26//26 35//35
f 34//34 42//42 33//33
f 35//35 28//28 36//36
f 35//35 42//42 34//34
f 35//35 44//44 43//43
f 36//36 28//28 37//37
f 36//36 44//44 35//35
f 37//37 30//30 38//38
f 37//37 44//44 36//36
f 37//37 46//46 45//45
f 38//38 30//30 39//39
f 38//38 46//46 37//37
f 39//39 32//32 40//40
f 39//39 46//46 38//38
f 39//39 48//48 47//47
f 40//40 32//32 33//33
f 40//40 48//48 39//39
f 41//41 9//9 48//48
f 41//41 48//48 33//33
f 42//42 9//9 41//41
f 43//43 11//11 42//42
f 43//43 42//42 35//35
f 44//44 11//11 43//43
f 45//45 13//13 44//44
f 45//45 44//44 37//37
f 46//46 13//13 45//45
f 47//47 15//15 46//46
f 47//47 46//46 39//39
f 48//48 15//15 47//47
f 49//49 58//58 57//57
f 49//49 64//64 56//56
f 49//49 74//74 50//50
f 50//50 58//58 49//49
f 50//50 74//74 51//51
f 51//51 58//58 50//50
f 51//51 60//60 59//59
f 51//51 76//76 52//52
f 52//52 60//60 51//51
f 52//52 76//76 53//53
f 53//53 60//60 52//52
f 53//53 62//62 61//61
f 53//53 78//78 54//54
f 54//54 62//62 53//53
f 54//54 78//78 55//55
f 55//55 62//62 54//54
f 55//55 64//64 63//63
f 55//55 80//80 56//56
f 56//56 64//64 55//55
f 56//56 80//80 49//49
f 57//57 1//1 64//64
f 57//57 64//64 49//49
f 58//58 1//1 57//57
f 59//59 3//3 58//58
f 59//59 58//58 51//51
f 60//60 3//3 59//59
f 61//61 5//5 60//60
f 61//61 60//60 53//53
f 62//62 5//5 61//61
f 63//63 7//7 62//62
f 63//63 62//62 55//55
f 64//64 7//7 63//63
f 65//65 74//74 73//73
f 65//65 80//80 72//72
f 65//65 90//90 66//66
f 66//66 74//74 65//65
f 66//66 90//90 67//67
f 67//67 74//74 66//66
f 67//67 76//76 75//75
f 67//67 92//92 68//68
f 68//68 76//76 67//67
f 68//68 92//92 69//69
f 69//69 76//76 68//68
f 69//69 78//78 77//77
f 69//69 94//94 70//70
f 70//70 78//78 69//69
f 70//70 94//94 71//71
f 71//71 78//78 70//70
f 71//71 80//80 79//79
f 71//71 96//96 72//72
f 72//72 80//80 71//71
f 72//72 96//96 65//65
f 73//73 49//49 80//80
f 73//73 80//80 65//65
f 74//74 49//49 73//73
f 75//75 51//51 74//74
f 75//75 74//74 67//67
f 76//76 51//51 75//75
f 77//77 53//53 76//76
f 77//77 76//76 69//69
f 78//78 53//53 77//77
f 79//79 55//55 78//78
f 79//79 78//78 71//71
f 80//80 55//55 79//79
f 81//81 90//90 89//89
f 81//81 96//96 88//88
f 81//81 106//106 82//82
f 82//82 90//90 81//81
f 82//82 106//106 83//83
f 83//83 90//90 82//82
f 83//83 92//92 91//91
f 83//83 108//108 84//84
f 84//84 92//92 83//83
f 84//84 108//108 85//85
f 85//85 92//92 84//84
f 85//85 94//94 93//93
f 85//85 110//110 86//86
f 86//86 94//94 85//85
f 86//86 110//110 87//87
f 87//87 94//94 86//86
f 87//87 96//96 95//95
f 87//87 112//112 88//88
f 88//88 96//96 87//87
f 88//88 112//112 81//81
f 89//89 65//65 96//96
f 89//89 96//96 81//81
f 90//90 65//65 89//89
f 91//91 67//67 90//90
f 91//91 90//90 83//83
f 92//92 67//67 91//91
f 93//93 69//69 92//92
f 93//93 92//92 85//85
f 94//94 69//69 93//93
f 95//95 71//71 94//94
f 95//95 94//94 87//87
f 96//96 71//71 95//95
f 97//97 106//106 105//105
f 97//97 112//112 104//104
f 97//97 122//122 98//98
f 98//98 106//106 97//97
f 98//98 122//122 99//99
f 99//99 106//106 98//98
f 99//99 108//108 107//107
f 99//99 124//124 100//100
f 100//100 108//108 99//99
f 100//100 124//124 101//101
f 101//101 108//108 100//100
f 101//101 110//110 109//109
f 101//101 126//126 102//102
f 102//102 110//110 101//101
f 102//102 126//126 103//103
f 103//103 110//110 102//102
f 103//103 112//112 111//111
f 103//103 128//128 104//104
f 104//104 112//112 103//103
f 104//104 128//128 97//97
f 105//105 81//81 112//112
f 105//105 112//112 97//97
f 106//106 81//81 105//105
f 107//107 83//83 106//106
f 107//107 106//106 99//99
f 108//108 83//83 107//107
f 109//109 85//85 108//108
f 109//109 108//108 101//101
f 110//110 85//85 109//109
f 111//111 87//87 110//110
f 111//111 110//110 103//103
f 112//112 87//87 111//111
f 113//113 122//122 121//121
f 113//113 162//162 114//114
f 114//114 115//115 122//122
f 114//114 122//122 113//113
f 114//114 162//162 115//115
f 115//115 124//124 123//123
f 115//115 164//164 116//116
f 116//116 117//117 124//124
f 116//116 124//124 115//115
f 116//116 164//164 117//117
f 117//117 126//126 125//125
f 117//117 166//166 118//118
f 118//118 119//119 126//126
f 118//118 126//126 117//117
f 118//118 166//166 119//119
f 119//119 128//128 127//127
f 119//119 168//168 120//120
f 120//120 113//113 128//128
f 120//120 128//128 119//119
f 120//120 168//168 113//113
f 121//121 97//97 128//128
f 121//121 128//128 113//113
f 122//122 97//97 121//121
f 123//123 99//99 122//122
f 123//123 122//122 115//115
f 124//124 99//99 123//123
f 125//125 101//101 124//124
f 125//125 124//124 117//117
f 126//126 101//101 125//125
f 127//127 103//103 126//126
f 127//127 126//126 119//119
f 128//128 103//103 127//127
f 129//129 136//136 169//169
f 129//129 169//169 130//130
f 130//130 137//137 129//129
f 130//130 139//139 138//138
f 130//130 169//169 131//131
f 131//131 139//139 130//130
f 131//131 169//169 132//132
f 132//132 139//139 131//131
f 132//132 141//141 140//140
f 132//132 169//169 133//133
f 133//133 141//141 132//132
f 133//133 169//169 134//134
f 134//134 141//141 133//133
f 134//134 143//143 142//142
f 134//134 169//169 135//135
f 135//135 143//143 134//134
f 135//135 169//169 136//136
f 136//136 137//137 144//144
f 136//136 143//143 135//135
f 137//137 136//136 129//129
f 137//137 146//146 145//145
f 137//137 152//152 144//144
f 138//138 137//137 130//130
f 138//138 139//139 146//146
f 138//138 146//146 137//137
f 139//139 148//148 147//147
f 140//140 139//139 132//132
f 140//140 141//141 148//148
f 140//140 148//148 139//139
f 141//141 150//150 149//149
f 142//142 141//141 134//134
f 142//142 143//143 150//150
f 142//142 150//150 141//141
f 143//143 152//152 151//151
f 144//144 143//143 136//136
f 144//144 152//152 143//143
f 145//145 146//146 153//153
f 145//145 152//152 137//137
f 145//145 153//153 152//152
f 146//146 155//155 154//154
f 147//147 146//146 139//139
f 147//147 148//148 155//155
f 147//147 155//155 146//146
f 148//148 157//157 156//156
f 149//149 148//148 141//141
f 149//149 150//150 157//157
f 149//149 157//157 148//148
f 150//150 159//159 158//158
f 151//151 150//150 143//143
f 151//151 152//152 159//159
f 151//151 159//159 150//150
f 152//152 153//153 160//160
f 153//153 162//162 161//161
f 153//153 168//168 160//160
f 154//154 153//153 146//146
f 154//154 155//155 162//162
f 154//154 162//162 153//153
f 155//155 164//164 163//163
f 156//156 155//155 148//148
f 156//156 157//157 164//164
f 156//156 164//164 155//155
f 157//157 166//166 165//165
f 158//158 157//157 150//150
f 158//158 159//159 166//166
f 158//158 166//166 157//157
f 159//159 168//168 167//167
f 160//160 159//159 152//152
f 160//160 168//168 159//159
f 161//161 113//113 168//168
f 161//161 168//168 153//153
f 162//162 113//113 161//161
f 163//163 115//115 162//162
f 163//163 162//162 155//155
f 164//164 115//115 163//163
f 165//165 117//117 164//164
f 165//165 164//164 157//157
f 166//166 117//117 165//165
f 167//167 119//119 166//166
f 167//167 166//166 159//159
f 168//168 119//119 167//167
